<?xml version="1.0" encoding="utf-8"?>
<svg version="1.1" xmlns:xlink="http://www.w3.org/1999/xlink" width="33px" height="33px" xmlns="http://www.w3.org/2000/svg">
  <g transform="matrix(1 0 0 1 -442 -368 )">
    <path d="M 5.559 27.424  C 11.747 33.595  21.76 33.595  27.931 27.424  C 34.102 21.253  34.102 11.24  27.931 5.052  C 21.76 -1.119  11.747 -1.119  5.559 5.052  C -0.612 11.223  -0.612 21.236  5.559 27.424  Z M 9.707 18.533  C 6.885 18.839  7.259 16.816  7.259 15.439  C 7.259 13.858  10.948 11.665  16.745 11.665  C 22.559 11.665  26.231 13.858  26.231 15.439  C 26.231 16.799  26.588 18.839  23.783 18.533  C 20.978 18.227  21.165 17.173  21.165 15.762  C 21.165 14.776  18.887 14.555  16.745 14.555  C 14.586 14.555  12.325 14.776  12.325 15.762  C 12.325 17.173  12.512 18.227  9.707 18.533  Z " fill-rule="nonzero" fill="#d81e06" stroke="none" transform="matrix(1 0 0 1 442 368 )" />
  </g>
</svg>