<?xml version="1.0" encoding="utf-8"?>
<svg version="1.1" xmlns:xlink="http://www.w3.org/1999/xlink" width="12px" height="12px" xmlns="http://www.w3.org/2000/svg">
  <g transform="matrix(1 0 0 1 -302 -131 )">
    <path d="M 11.3652458222585 5.42535477249401  L 6.48243164293797 5.42535477249401  L 6.48243164293797 0.688292955077766  C 6.48243164293797 0.469659233137715  6.26379792099792 0.178148035474618  5.97228672333482 0.178148035474618  C 5.68077552567173 0.178148035474618  5.46214180373168 0.469659233137715  5.46214180373168 0.761170430800811  L 5.46214180373168 5.49823224821706  L 0.725064449064449 5.49823224821706  C 0.433553251401353 5.42535438406274  0.142042053738256 5.71686597015711  0.142042053738256 6.00837716782021  C 0.142042053738256 6.2998883654833  0.433553251401353 6.51852208742335  0.652186973341403 6.51852208742335  L 5.38924879075765 6.51852208742335  L 5.38924879075765 11.2555839048396  C 5.46212665491197 11.5470951025027  5.68075998842075 11.8386063001658  5.97227118608384 11.8386063001658  C 6.26378238374694 11.8386063001658  6.48241610568699 11.5470951025027  6.48241610568699 11.3284613805626  L 6.48241610568699 6.51851690833969  L 11.2923605779099 6.51851690833969  C 11.583871775573 6.51851690833969  11.8025054975131 6.2270057106766  11.8025054975131 6.00837198873655  C 11.8025054975131 5.7897382667965  11.6567492512961 5.42534959341035  11.365238053633 5.42534959341035  Z " fill-rule="nonzero" fill="#ffffff" stroke="none" transform="matrix(1 0 0 1 302 131 )" />
  </g>
</svg>