<?xml version="1.0" encoding="utf-8"?>
<svg version="1.1" xmlns:xlink="http://www.w3.org/1999/xlink" width="65px" height="65px" xmlns="http://www.w3.org/2000/svg">
  <g transform="matrix(1 0 0 1 -342 -295 )">
    <path d="M 374.5 295  C 392.7 295  407 309.3  407 327.5  C 407 345.7  392.7 360  374.5 360  C 356.3 360  342 345.7  342 327.5  C 342 309.3  356.3 295  374.5 295  Z " fill-rule="nonzero" fill="#ffffff" stroke="none" />
    <path d="M 374.5 295.5  C 392.42 295.5  406.5 309.58  406.5 327.5  C 406.5 345.42  392.42 359.5  374.5 359.5  C 356.58 359.5  342.5 345.42  342.5 327.5  C 342.5 309.58  356.58 295.5  374.5 295.5  Z " stroke-width="1" stroke="#aaaaaa" fill="none" />
  </g>
</svg>