<?xml version="1.0" encoding="utf-8"?>
<svg version="1.1" xmlns:xlink="http://www.w3.org/1999/xlink" width="23px" height="23px" xmlns="http://www.w3.org/2000/svg">
  <g transform="matrix(1 0 0 1 -562 -235 )">
    <path d="M 23 11.5  C 23 17.848  17.848 23  11.5 23  C 5.152 23  0 17.848  0 11.5  C 0 5.152  5.152 0  11.5 0  C 17.848 0  23 5.152  23 11.5  Z M 21.9075 11.5  C 21.9075 5.7615  17.227 1.0925  11.5 1.0925  C 5.773 1.0925  1.0925 5.773  1.0925 11.5  C 1.0925 17.227  5.7615 21.9075  11.5 21.9075  C 17.2385 21.9075  21.9075 17.2385  21.9075 11.5  Z " fill-rule="nonzero" fill="#7f7f7f" stroke="none" transform="matrix(1 0 0 1 562 235 )" />
  </g>
</svg>