<?xml version="1.0" encoding="utf-8"?>
<svg version="1.1" xmlns:xlink="http://www.w3.org/1999/xlink" width="11px" height="11px" xmlns="http://www.w3.org/2000/svg">
  <g transform="matrix(1 0 0 1 -568 -241 )">
    <path d="M 10.7095 9.847  L 6.328 5.5  L 10.7095 1.1185  C 10.928 0.9  10.928 0.5435  10.7095 0.290500000000001  L 10.675 0.256  C 10.4565 0.0375000000000005  10.1 0.0375000000000005  9.8815 0.256  L 5.5 4.672  L 1.1185 0.290500000000001  C 0.9 0.0720000000000001  0.5435 0.0720000000000001  0.325 0.290500000000001  L 0.290500000000001 0.325  C 0.0720000000000001 0.543500000000001  0.0720000000000001 0.900000000000001  0.290500000000001 1.153  L 4.672 5.5  L 0.290500000000001 9.8815  C 0.0720000000000001 10.1  0.0720000000000001 10.4565  0.290500000000001 10.7095  L 0.325 10.744  C 0.543500000000001 10.9625  0.900000000000001 10.9625  1.1185 10.744  L 5.5 6.328  L 9.8815 10.7095  C 10.1 10.928  10.4565 10.928  10.675 10.7095  L 10.7095 10.675  C 10.928 10.4565  10.928 10.1  10.7095 9.847  Z " fill-rule="nonzero" fill="#7f7f7f" stroke="none" transform="matrix(1 0 0 1 568 241 )" />
  </g>
</svg>