<?xml version="1.0" encoding="utf-8"?>
<svg version="1.1" xmlns:xlink="http://www.w3.org/1999/xlink" width="19px" height="31px" xmlns="http://www.w3.org/2000/svg">
  <g transform="matrix(1 0 0 1 -265 -142 )">
    <path d="M 4.82230994628906 26.4482508974609  L 4.82230994628906 17.9728591015625  L 2.84026497460938 16.0632929775391  L 0.858220002929687 17.9728591015625  L 0.858220002929687 26.4482508974609  L 2.84026497460938 28.3577844169922  L 4.82230994628906 26.4482508974609  Z M 18.1093243291016 4.48752279394531  L 16.1272793574219 2.57795666992188  L 14.1452343857422 4.48752279394531  L 14.1452343857422 12.9628819550781  L 16.1272793574219 14.8724154746094  L 18.1093243291016 12.9628819550781  L 18.1093243291016 4.48752279394531  Z M 13.6231714990234 3.96412254785156  L 15.5327050185547 1.98207757617187  L 13.6231714990234 0  L 5.34610162792969 0  L 3.43653550390625 1.98204497167969  L 5.34610162792969 3.96408994335938  L 13.6231714990234 3.96408991308594  Z M 13.6231714990234 26.9707052197266  L 5.34610162792969 26.9707052197266  L 3.43653550390625 28.9527501914062  L 5.34610162792969 30.9347951630859  L 13.6231714990234 30.9347951630859  L 15.5327050185547 28.9527501914062  L 13.6231714990234 26.9707052197266  Z M 13.6231714990234 13.4853689121094  L 5.34610162792969 13.4853689121094  L 3.43653550390625 15.4674138837891  L 5.34610162792969 17.4494588554688  L 13.6231714990234 17.4494588554688  L 15.5327050185547 15.4674138837891  L 13.6231714990234 13.4853689121094  Z " fill-rule="nonzero" fill="#ffffff" stroke="none" transform="matrix(1 0 0 1 265 142 )" />
  </g>
</svg>