<?xml version="1.0" encoding="utf-8"?>
<svg version="1.1" xmlns:xlink="http://www.w3.org/1999/xlink" width="48px" height="48px" xmlns="http://www.w3.org/2000/svg">
  <g transform="matrix(1 0 0 1 -701 -498 )">
    <path d="M 2.4 24  C 2.4 12.096  12.096 2.4  24 2.4  C 35.904 2.4  45.6 12.096  45.6 24  C 45.6 35.904  35.904 45.6  24 45.6  C 12.096 45.6  2.4 35.904  2.4 24  Z M 48 24  C 48 10.752  37.248 0  24 0  C 10.752 0  0 10.752  0 24  C 0 37.248  10.752 48  24 48  C 37.248 48  48 37.248  48 24  Z " fill-rule="nonzero" fill="#7f7f7f" stroke="none" transform="matrix(1 0 0 1 701 498 )" />
  </g>
</svg>