<?xml version="1.0" encoding="utf-8"?>
<svg version="1.1" xmlns:xlink="http://www.w3.org/1999/xlink" width="13px" height="13px" xmlns="http://www.w3.org/2000/svg">
  <g transform="matrix(1 0 0 1 -725 -510 )">
    <path d="M 0.797874999999999 2.50683333333333  C 1.10066666666666 2.78633333333333  1.496625 2.8795  1.86929166666667 2.809625  C 1.89258333333333 2.809625  1.915875 2.809625  1.915875 2.78633333333333  C 4.24504166666667 2.041  6.877 2.6  8.71704166666667 4.44004166666666  C 10.440625 6.163625  10.8831666666667 8.86545833333333  10.37075 11.0781666666667  C 10.1844166666667 11.4974166666667  10.2775833333333 11.9865416666667  10.6036666666667 12.312625  C 11.0462083333333 12.7551666666667  11.7449583333333 12.7551666666667  12.1875 12.312625  C 12.32725 12.172875  12.4204166666667 12.0098333333333  12.467 11.8467916666667  C 13.235625 8.79558333333333  12.6999166666667 5.23195833333333  10.3241666666667 2.83291666666666  C 7.85525 0.387291666666665  4.33820833333333 -0.311458333333337  1.24041666666666 0.643499999999997  C 1.077375 0.690083333333332  0.914333333333327 0.783249999999997  0.797874999999999 0.922999999999998  C 0.355333333333329 1.36554166666667  0.355333333333329 2.06429166666667  0.797874999999999 2.50683333333333  Z " fill-rule="nonzero" fill="#7f7f7f" stroke="none" transform="matrix(1 0 0 1 725 510 )" />
  </g>
</svg>