<?xml version="1.0" encoding="utf-8"?>
<svg version="1.1" xmlns:xlink="http://www.w3.org/1999/xlink" width="7px" height="7px" xmlns="http://www.w3.org/2000/svg">
  <g transform="matrix(1 0 0 1 -726 -514 )">
    <path d="M 4.71153846153846 5.40830769230769  C 4.59576923076923 5.80192307692307  4.71153846153846 6.17238461538461  4.98938461538461 6.42707692307692  C 5.42930769230769 6.867  6.12392307692308 6.867  6.56384615384616 6.42707692307692  C 6.74907692307693 6.24184615384615  6.86484615384615 5.98715384615385  6.888 5.73246153846153  C 7.07323076923077 4.32007692307692  6.61015384615385 2.83823076923077  5.52192307692308 1.72684615384615  C 4.41053846153846 0.615461538461535  2.85923076923077 0.198692307692304  1.42369230769231 0.383923076923074  C 1.2153076923077 0.430230769230765  1.03007692307693 0.52284615384615  0.868000000000001 0.684923076923074  C 0.428076923076928 1.12484615384615  0.428076923076928 1.81946153846154  0.868000000000001 2.25938461538461  C 1.12269230769231 2.51407692307692  1.49315384615384 2.62984615384615  1.81730769230769 2.56038461538461  C 2.58138461538461 2.46776923076923  3.36861538461538 2.72246153846153  3.94746153846154 3.30130769230769  C 4.52630769230769 3.88015384615384  4.75784615384615 4.66738461538461  4.68838461538462 5.40830769230769  L 4.71153846153846 5.40830769230769  Z " fill-rule="nonzero" fill="#7f7f7f" stroke="none" transform="matrix(1 0 0 1 726 514 )" />
  </g>
</svg>