<?xml version="1.0" encoding="utf-8"?>
<svg version="1.1" xmlns:xlink="http://www.w3.org/1999/xlink" width="26px" height="27px" xmlns="http://www.w3.org/2000/svg">
  <g transform="matrix(1 0 0 1 -712 -508 )">
    <path d="M 25.6625652173913 21.0465  C 25.6625652173913 17.9263125  23.1349130434783 15.4108125  20.0239565217391 15.4108125  C 17.3747826086956 15.4108125  15.1630869565217 17.224875  14.5554782608696 19.6678125  C 11.0799565217391 18.1198125  8.38217391304347 15.1205625  7.23986956521739 11.4440625  C 9.646 10.8151875  11.4445217391304 8.63831249999999  11.4445217391304 6.0260625  L 11.4445217391304 5.97768749999999  C 11.4445217391304 2.905875  8.94117391304348 0.414562499999997  5.85452173913043 0.414562499999997  C 5.07678260869565 0.414562499999997  4.32334782608696 0.583874999999996  3.66713043478261 0.849937499999998  C 1.62556521739131 1.6965  0.191608695652173 3.7040625  0.191608695652173 6.0260625  L 0.191608695652173 6.679125  C 0.191608695652173 17.708625  9.18421739130435 26.609625  20.2426956521739 26.609625  L 20.4857391304348 26.609625  C 20.5829565217391 26.609625  20.6801739130435 26.5854375  20.7773913043478 26.56125  C 22.8918695652174 26.271  24.6417826086957 24.81975  25.3223043478261 22.8605625  C 25.3709130434783 22.7638125  25.4195217391304 22.6670625  25.4438260869565 22.5703125  C 25.589652173913 22.0865625  25.6625652173913 21.578625  25.6625652173913 21.0465  Z " fill-rule="nonzero" fill="#7f7f7f" stroke="none" transform="matrix(1 0 0 1 712 508 )" />
  </g>
</svg>