<?xml version="1.0" encoding="utf-8"?>
<svg version="1.1" xmlns:xlink="http://www.w3.org/1999/xlink" width="287px" height="155px" xmlns="http://www.w3.org/2000/svg">
  <g transform="matrix(1 0 0 1 -554 -120 )">
    <path d="M 554 120  L 841 120  L 841 275  L 554 275  L 554 120  " fill-rule="nonzero" fill="#cccccc" stroke="none" />
    <path d="M 565 131  L 830 131  L 830 264  L 565 264  L 565 131  " fill-rule="nonzero" fill="#ffffff" stroke="none" />
    <path d="M 714.865 166.5  C 708.355 166.5  703.24 161.385  703.24 154.875  C 703.24 148.365  708.355 143.25  714.865 143.25  C 721.375 143.25  726.49 148.365  726.49 154.875  C 726.49 161.385  721.375 166.5  714.865 166.5  " fill-rule="nonzero" fill="#cccccc" stroke="none" />
    <path d="M 569 260  L 569 191.25  L 633.25 160  L 723.2 219.494773519164  L 774.6 178.75  L 826 219.494773519164  L 826 260  L 569 260  " fill-rule="nonzero" fill="#169bd5" stroke="none" />
  </g>
</svg>