<?xml version="1.0" encoding="utf-8"?>
<svg version="1.1" xmlns:xlink="http://www.w3.org/1999/xlink" width="19px" height="33px" xmlns="http://www.w3.org/2000/svg">
  <g transform="matrix(1 0 0 1 -266 -139 )">
    <path d="M 3.71052630957031 3  L 15.2894736904297 3  L 16.7368421210938 1.44736843066406  L 15.2894736904297 0  L 3.71052630957031 0  L 2.26315787890625 1.44736843066406  L 3.71052630957031 3  Z M 15.2894736904297 30  L 3.71052630957031 30  L 2.26315787890625 31.5526315693359  L 3.71052630957031 33  L 15.2894736904297 33  L 16.7368421210938 31.5526315693359  L 15.2894736904297 30  Z M 18.4736841992187 3.18421054101563  L 17.0263158007813 1.73684211035156  L 15.5789473701172 3.18421054101563  L 15.5789473701172 14.7631578896484  L 17.0263158007813 16.2105263203125  L 18.4736841992187 14.7631578896484  L 18.4736841992187 3.18421054101563  Z M 1.97368419921875 16.2105263203125  L 3.42105262988281 14.7631578896484  L 3.42105262988281 3.18421054101563  L 1.97368419921875 1.73684211035156  L 0.52631580078125 3.18421054101563  L 0.52631580078125 14.7631578896484  L 1.97368419921875 16.2105263203125  Z M 3.42105262988281 29.8157894589844  L 3.42105262988281 17.9473684306641  L 1.97368419921875 16.5  L 0.52631580078125 17.9473684306641  L 0.52631580078125 29.8157894589844  L 1.97368419921875 31.2631578896484  L 3.42105262988281 29.8157894589844  Z M 17.0263158007813 16.5  L 15.5789473701172 17.9473684306641  L 15.5789473701172 29.8157894589844  L 17.0263158007813 31.2631578896484  L 18.4736841992187 29.8157894589844  L 18.4736841992187 17.9473684306641  L 17.0263158007813 16.5  Z " fill-rule="nonzero" fill="#ffffff" stroke="none" transform="matrix(1 0 0 1 266 139 )" />
  </g>
</svg>