<?xml version="1.0" encoding="utf-8"?>
<svg version="1.1" xmlns:xlink="http://www.w3.org/1999/xlink" width="15px" height="15px" xmlns="http://www.w3.org/2000/svg">
  <g transform="matrix(1 0 0 1 -760 -464 )">
    <path d="M 0.920624999999999 2.8925  C 1.26999999999999 3.215  1.726875 3.3225  2.156875 3.241875  C 2.18375 3.241875  2.210625 3.241875  2.210625 3.215  C 4.898125 2.355  7.935 3  10.058125 5.123125  C 12.046875 7.111875  12.5575 10.229375  11.96625 12.7825  C 11.75125 13.26625  11.85875 13.830625  12.235 14.206875  C 12.745625 14.7175  13.551875 14.7175  14.0625 14.206875  C 14.22375 14.045625  14.33125 13.8575  14.385 13.669375  C 15.271875 10.14875  14.65375 6.036875  11.9125 3.26875  C 9.06375 0.446874999999998  5.005625 -0.359375000000004  1.43125 0.742499999999997  C 1.243125 0.796249999999998  1.05499999999999 0.903749999999997  0.920624999999999 1.065  C 0.409999999999995 1.575625  0.409999999999995 2.381875  0.920624999999999 2.8925  Z " fill-rule="nonzero" fill="#7f7f7f" stroke="none" transform="matrix(1 0 0 1 760 464 )" />
  </g>
</svg>