<?xml version="1.0" encoding="utf-8"?>
<svg version="1.1" xmlns:xlink="http://www.w3.org/1999/xlink" width="8px" height="8px" xmlns="http://www.w3.org/2000/svg">
  <g transform="matrix(1 0 0 1 -761 -468 )">
    <path d="M 5.38461538461539 6.18092307692307  C 5.25230769230769 6.63076923076923  5.38461538461539 7.05415384615384  5.70215384615384 7.34523076923077  C 6.20492307692308 7.848  6.99876923076923 7.848  7.50153846153846 7.34523076923077  C 7.71323076923077 7.13353846153846  7.84553846153846 6.84246153846154  7.872 6.55138461538461  C 8.08369230769231 4.93723076923077  7.55446153846154 3.2436923076923  6.31076923076924 1.97353846153846  C 5.04061538461539 0.703384615384611  3.26769230769231 0.227076923076919  1.62707692307693 0.438769230769227  C 1.38892307692308 0.491692307692303  1.17723076923078 0.597538461538457  0.992000000000001 0.782769230769228  C 0.489230769230775 1.28553846153846  0.489230769230775 2.07938461538461  0.992000000000001 2.58215384615384  C 1.28307692307692 2.87323076923076  1.70646153846154 3.00553846153846  2.07692307692308 2.92615384615384  C 2.95015384615384 2.82030769230769  3.84984615384615 3.11138461538461  4.51138461538462 3.77292307692307  C 5.17292307692308 4.43446153846154  5.43753846153846 5.33415384615384  5.35815384615385 6.18092307692307  L 5.38461538461539 6.18092307692307  Z " fill-rule="nonzero" fill="#7f7f7f" stroke="none" transform="matrix(1 0 0 1 761 468 )" />
  </g>
</svg>