<?xml version="1.0" encoding="utf-8"?>
<svg version="1.1" xmlns:xlink="http://www.w3.org/1999/xlink" width="31px" height="32px" xmlns="http://www.w3.org/2000/svg">
  <g transform="matrix(1 0 0 1 -745 -461 )">
    <path d="M 30.5976739130435 24.944  C 30.5976739130435 21.246  27.5839347826087 18.2646666666667  23.8747173913043 18.2646666666667  C 20.7160869565217 18.2646666666667  18.0790652173913 20.4146666666667  17.3546086956522 23.31  C 13.2107173913043 21.4753333333333  9.9941304347826 17.9206666666667  8.63215217391304 13.5633333333333  C 11.501 12.818  13.6453913043478 10.238  13.6453913043478 7.142  L 13.6453913043478 7.08466666666666  C 13.6453913043478 3.444  10.6606304347826 0.49133333333333  6.98039130434782 0.49133333333333  C 6.05308695652174 0.49133333333333  5.15476086956522 0.691999999999995  4.37234782608696 1.00733333333333  C 1.93817391304348 2.01066666666666  0.22845652173913 4.39  0.22845652173913 7.142  L 0.22845652173913 7.916  C 0.22845652173913 20.988  10.9504130434783 31.5373333333333  24.1355217391304 31.5373333333333  L 24.4253043478261 31.5373333333333  C 24.5412173913044 31.5373333333333  24.6571304347826 31.5086666666667  24.7730434782609 31.48  C 27.294152173913 31.136  29.3805869565217 29.416  30.1919782608696 27.094  C 30.2499347826087 26.9793333333333  30.3078913043478 26.8646666666667  30.3368695652174 26.75  C 30.5107391304348 26.1766666666667  30.5976739130435 25.5746666666667  30.5976739130435 24.944  Z " fill-rule="nonzero" fill="#7f7f7f" stroke="none" transform="matrix(1 0 0 1 745 461 )" />
  </g>
</svg>